<?xml version="1.0" encoding="UTF-8" standalone="no"?>
<!-- Created with Inkscape (http://www.inkscape.org/) -->

<svg
   version="1.1"
   id="svg2"
   xml:space="preserve"
   width="569.76007"
   height="199.0937"
   viewBox="0 0 569.76007 199.0937"
   sodipodi:docname="itoyori-black-tp.svg"
   inkscape:version="1.1.2 (0a00cf5339, 2022-02-04)"
   xmlns:inkscape="http://www.inkscape.org/namespaces/inkscape"
   xmlns:sodipodi="http://sodipodi.sourceforge.net/DTD/sodipodi-0.dtd"
   xmlns="http://www.w3.org/2000/svg"
   xmlns:svg="http://www.w3.org/2000/svg"><defs
     id="defs6" /><sodipodi:namedview
     id="namedview4"
     pagecolor="#ffffff"
     bordercolor="#666666"
     borderopacity="1.0"
     inkscape:pageshadow="2"
     inkscape:pageopacity="0.0"
     inkscape:pagecheckerboard="0"
     showgrid="false"
     inkscape:zoom="0.57824473"
     inkscape:cx="57.069262"
     inkscape:cy="221.35956"
     inkscape:window-width="1912"
     inkscape:window-height="1011"
     inkscape:window-x="4"
     inkscape:window-y="36"
     inkscape:window-maximized="0"
     inkscape:current-layer="g10"
     fit-margin-top="20"
     fit-margin-left="20"
     fit-margin-right="20"
     fit-margin-bottom="20"
     lock-margins="true" /><g
     id="g8"
     inkscape:groupmode="layer"
     inkscape:label="ink_ext_XXXXXX"
     transform="matrix(1.3333333,0,0,-1.3333333,-33.574532,434.46704)"><g
       id="g10"
       transform="scale(0.1)"><path
         d="m 456.621,2530.21 c -9.305,0 -17.973,-0.78 -26.012,-2.33 -8.062,-1.54 -14.25,-2.94 -18.586,-4.18 v -186.69 -47.38 -159.76 c 0,-15.49 4.336,-26.62 13.008,-33.44 8.672,-6.8 21.676,-10.22 39.02,-10.22 9.281,0 17.777,0.94 25.535,2.79 7.73,1.85 13.766,3.4 18.102,4.64 v 195.99 47.38 149.54 c 0,16.1 -4.161,27.41 -12.528,33.9 -8.363,6.52 -21.219,9.76 -38.539,9.76"
         style="fill:#ffffff;fill-opacity:1;fill-rule:nonzero;stroke:none"
         id="path16" /><path
         d="m 459.387,2715.05 c -16.098,0 -29.715,-5.27 -40.871,-15.8 -11.133,-10.52 -16.707,-23.83 -16.707,-39.93 0,-15.49 5.574,-28.65 16.707,-39.48 11.156,-10.82 24.773,-16.25 40.871,-16.25 17.343,0 31.265,5.43 41.808,16.25 10.524,10.83 15.793,23.99 15.793,39.48 0,16.1 -5.269,29.41 -15.793,39.93 -10.543,10.53 -24.465,15.8 -41.808,15.8"
         style="fill:#ffffff;fill-opacity:1;fill-rule:nonzero;stroke:none"
         id="path18" /><path
         d="m 886.96,2172.59 c -8.06,-4.33 -18.27,-8.03 -30.65,-11.13 -12.396,-3.11 -23.548,-4.66 -33.443,-4.66 -23.551,0 -41.804,4.66 -54.812,13.94 -13.008,9.28 -19.5,25.08 -19.5,47.37 v 92.89 26.01 104.03 H 869.3 c 10.52,0 18.73,3.25 24.61,9.76 5.89,6.5 8.83,16.26 8.83,29.26 0,7.43 -1.09,14.53 -3.25,21.35 -2.18,6.82 -4.49,12.07 -6.97,15.8 H 748.555 v 92.87 c 0,15.49 -4.18,26.63 -12.547,33.44 -8.344,6.82 -21.219,10.22 -38.539,10.22 -9.281,0 -17.977,-0.91 -26.016,-2.79 -8.058,-1.85 -13.918,-3.4 -17.644,-4.64 v -309.3 -26.01 -98.45 c 0,-47.69 13.769,-81.74 41.328,-102.18 27.558,-20.43 64.246,-30.65 110.086,-30.65 32.808,0 57.427,5.1 73.837,15.32 16.4,10.21 24.61,23.37 24.61,39.47 0,8.04 -1.72,15.34 -5.09,21.83 -3.42,6.52 -7.3,11.92 -11.62,16.25"
         style="fill:#ffffff;fill-opacity:1;fill-rule:nonzero;stroke:none"
         id="path20" /><path
         d="m 1289.9,2196.76 c -21.37,-27.26 -51.24,-40.88 -89.63,-40.88 -38.41,0 -68.28,13.47 -89.65,40.4 -21.35,26.95 -32.05,64.57 -32.05,112.87 0,47.67 11.01,85.12 32.99,112.4 21.96,27.23 51.54,40.84 88.71,40.84 37.76,0 67.47,-13.61 89.17,-40.84 21.66,-27.28 32.51,-64.73 32.51,-112.4 0,-47.69 -10.7,-85.16 -32.05,-112.39 z m 25.53,314.41 c -32.83,18.89 -71.22,28.33 -115.16,28.33 -43.35,0 -81.61,-9.44 -114.72,-28.33 -33.14,-18.91 -58.85,-45.51 -77.11,-79.89 -18.25,-34.35 -27.38,-75.09 -27.38,-122.13 0,-47.08 8.95,-87.78 26.93,-122.16 17.95,-34.35 43.33,-61 76.16,-79.89 32.81,-18.86 71.53,-28.32 116.12,-28.32 44.58,0 83.27,9.46 116.1,28.32 32.81,18.89 58.19,45.67 76.16,80.35 17.96,34.69 26.93,75.25 26.93,121.7 0,47.04 -9.13,87.78 -27.38,122.13 -18.28,34.38 -43.82,60.98 -76.65,79.89"
         style="fill:#ffffff;fill-opacity:1;fill-rule:nonzero;stroke:none"
         id="path22" /><path
         d="m 1885.56,2525.57 c -8.98,6.17 -20.29,9.29 -33.9,9.29 -7.43,0 -14.56,-0.94 -21.38,-2.79 -6.81,-1.86 -13.31,-4.03 -19.49,-6.5 -7.43,-37.16 -17.19,-76.49 -29.26,-117.97 -12.07,-41.5 -24.62,-81.13 -37.63,-118.89 -12.98,-37.77 -25.68,-69.99 -38.08,-96.6 h -3.7 c -21.07,52.01 -40.87,102.46 -59.46,151.4 -18.58,48.91 -36.23,98.47 -52.94,148.62 -4.97,16.1 -11.76,27.23 -20.43,33.44 -8.67,6.17 -19.83,9.29 -33.45,9.29 -10.54,0 -20.28,-2.18 -29.25,-6.5 -8.98,-4.35 -15.95,-9.91 -20.9,-16.73 13.62,-46.45 27.87,-90.08 42.72,-130.96 14.86,-40.87 29.11,-77.42 42.73,-109.6 13.61,-32.22 25.68,-58.52 36.23,-78.96 11.76,-23.55 22.59,-39.8 32.5,-48.77 9.92,-8.98 20.13,-15.02 30.66,-18.11 -9.92,-18.58 -22.44,-38.23 -37.63,-58.97 -15.16,-20.74 -30.8,-39.96 -46.9,-57.61 -16.1,-17.64 -30.66,-32.35 -43.64,-44.11 1.85,-13.62 7.73,-25.23 17.64,-34.84 9.9,-9.59 23.51,-14.4 40.88,-14.4 22.28,0 45.96,14.25 71.04,42.74 25.08,28.48 52.48,69.98 82.2,124.47 14.25,25.38 28.47,53.85 42.74,85.44 14.23,31.59 27.39,63.95 39.48,97.06 12.07,33.14 22.9,64.88 32.51,95.23 9.58,30.32 17.01,57.43 22.28,81.26 5.25,23.84 7.89,41.94 7.89,54.34 0,13.61 -4.49,23.52 -13.46,29.73"
         style="fill:#ffffff;fill-opacity:1;fill-rule:nonzero;stroke:none"
         id="path24" /><path
         d="m 2284.33,2196.76 c -21.37,-27.26 -51.24,-40.88 -89.63,-40.88 -38.41,0 -68.28,13.47 -89.65,40.4 -21.35,26.95 -32.05,64.57 -32.05,112.87 0,47.67 11.01,85.12 32.99,112.4 21.96,27.23 51.54,40.84 88.71,40.84 37.76,0 67.47,-13.61 89.17,-40.84 21.66,-27.28 32.51,-64.73 32.51,-112.4 0,-47.69 -10.7,-85.16 -32.05,-112.39 z m 25.53,314.41 c -32.83,18.89 -71.21,28.33 -115.16,28.33 -43.35,0 -81.61,-9.44 -114.72,-28.33 -33.14,-18.91 -58.85,-45.51 -77.11,-79.89 -18.25,-34.35 -27.38,-75.09 -27.38,-122.13 0,-47.08 8.95,-87.78 26.93,-122.16 17.95,-34.35 43.33,-61 76.16,-79.89 32.81,-18.86 71.53,-28.32 116.12,-28.32 44.58,0 83.27,9.46 116.1,28.32 32.81,18.89 58.19,45.67 76.17,80.35 17.95,34.69 26.92,75.25 26.92,121.7 0,47.04 -9.13,87.78 -27.38,122.13 -18.28,34.38 -43.81,60.98 -76.65,79.89"
         style="fill:#ffffff;fill-opacity:1;fill-rule:nonzero;stroke:none"
         id="path26" /><path
         d="m 2729.97,2538.58 c -33.42,0 -64.25,-3.72 -92.42,-11.15 -28.19,-7.43 -50.94,-16.71 -68.26,-27.87 -13,-8.67 -22.76,-17.82 -29.25,-27.41 -6.52,-9.6 -9.76,-21.83 -9.76,-36.68 v -98.46 -39.95 -167.19 c 0,-15.49 4.31,-26.62 13,-33.44 8.65,-6.8 21.66,-10.22 39,-10.22 9.3,0 17.8,0.94 25.55,2.79 7.74,1.85 13.77,3.4 18.11,4.64 v 203.42 31.59 104.96 c 13.61,8.04 30.8,14.71 51.57,19.96 20.71,5.27 43.79,7.91 69.19,7.91 9.89,0 19.65,-0.63 29.26,-1.85 9.58,-1.27 17.49,-2.49 23.68,-3.73 3.09,4.95 5.73,10.52 7.89,16.71 2.17,6.19 3.26,13.01 3.26,20.44 0,30.35 -26.95,45.53 -80.82,45.53"
         style="fill:#ffffff;fill-opacity:1;fill-rule:nonzero;stroke:none"
         id="path28" /><path
         d="m 2990.81,2520.45 c -8.36,6.52 -21.22,9.76 -38.54,9.76 -9.3,0 -17.97,-0.78 -26.01,-2.33 -8.06,-1.54 -14.25,-2.94 -18.58,-4.18 v -186.69 -47.38 -159.76 c 0,-15.49 4.33,-26.62 13,-33.44 8.68,-6.8 21.68,-10.22 39.02,-10.22 9.28,0 17.78,0.94 25.54,2.79 7.73,1.85 13.77,3.4 18.1,4.64 v 195.99 47.38 149.54 c 0,16.1 -4.16,27.41 -12.53,33.9"
         style="fill:#ffffff;fill-opacity:1;fill-rule:nonzero;stroke:none"
         id="path30" /><path
         d="m 3192.3997,3039.9391 c -8.45,-3.02 -16.78,-6.28 -25.03,-9.7 -1.09,-0.44 -2.15,-0.81 -3.24,-1.25 l 0.08,-0.07 c -196.85,-82.81 -337.23,-270.85 -337.23,-270.85 0,0 48.37,-64.8 128.2,-135.08 24.82,30.54 80.07,94.76 157.22,163.4 51.78,46.05 113.42,94.01 182.43,135.16 6.29,3.78 12.9,7.51 19.68,11.22 1.02,0.57 2.03,1.15 3.05,1.73 123.04,66.28 321.12,119.67 452.25,123.64 0,0 -199.65,124.62 -577.41,-18.2"
         style="fill:#f7c50d;fill-opacity:1;fill-rule:nonzero;stroke:none"
         id="path32" /><path
         d="m 3756.1097,2615.1791 c 13.36,-8.14 26.66,-16.35 40.84,-23.85 75.42,-39.84 160.1,-69.03 246.49,-69.03 54.96,0 108,10.31 157.84,27.14 -105.27,31.69 -195.21,85.74 -257.53,130.67 -27.37,19.71 -47.47,36.29 -63.17,49.78 -0.49,-0.47 -2.06,-1.96 -2.09,-1.99 -3.36,-3.29 -58.46,-57.19 -122.38,-112.72"
         style="fill:#ff9c9c;fill-opacity:1;fill-rule:nonzero;stroke:none"
         id="path34" /><path
         d="m 3734.7197,2428.0091 c -52.9,4.09 -105.39,13.29 -157.49,27.55 -16.11,4.16 -32.05,9.49 -48.02,14.56 -64.19,-25.98 -131.08,-39.96 -199.46,-41.57 144.22,-38.25 282.87,-40.8 404.97,-0.54"
         style="fill:#ff9c9c;fill-opacity:1;fill-rule:nonzero;stroke:none"
         id="path36" /><path
         d="m 3647.2797,2935.3991 c -20.46,12.95 -52.7,31.98 -86.79,48.61 -64.38,-17.03 -128.16,-39.06 -182.24,-63.74 62.45,-36.77 111.03,-81.76 142.83,-116.64 4.1,-4.42 11.62,-12.05 20.54,-20.89 36,34 87.79,78.55 150.83,121.11 -14.49,10.63 -29.03,21.32 -45.17,31.55"
         style="fill:#ff9c9c;fill-opacity:1;fill-rule:nonzero;stroke:none"
         id="path38" /><path
         d="m 3176.6497,2549.4491 c 0.44,0.09 0.88,0.2 1.29,0.29 17.21,3.46 34.01,8.16 50.59,13.38 3.36,1.07 6.72,2.05 10.08,3.17 16.8,5.61 33.4,11.73 49.81,18.34 -59.97,39.61 -121.08,88.88 -178.55,145.28 -61.99,-58.46 -106.65,-110.43 -124.03,-131.76 l -0.61,-0.76 c 15.18,-12.34 33.31,-25.19 51.3,-37.44 20.25,-13.78 44.21,-21.74 68.69,-20.87 24.11,0.85 49.62,6.06 71.43,10.37"
         style="fill:#ff9c9c;fill-opacity:1;fill-rule:nonzero;stroke:none"
         id="path40" /><path
         d="m 2964.4797,2833.9591 c -19.96,0 -36.01,-6.24 -48.17,-18.69 -12.17,-12.49 -18.25,-27.77 -18.25,-45.84 0,-17.46 6.08,-32.59 18.25,-45.38 12.16,-12.77 28.21,-19.17 48.17,-19.17 19.34,0 35.39,6.4 48.16,19.17 12.79,12.79 19.18,27.92 19.18,45.38 0,18.07 -6.39,33.35 -19.18,45.84 -12.77,12.45 -28.82,18.69 -48.16,18.69"
         style="fill:#ffffff;fill-opacity:1;fill-rule:nonzero;stroke:none"
         id="path42" /><path
         d="m 4084.9297,2988.1891 c -0.44,0.04 -0.88,0.08 -1.32,0.12 -0.8,0.06 -1.63,0.1 -2.43,0.16 -11.2,0.95 -22.5,1.47 -33.88,1.57 -0.34,0.01 -0.67,0.02 -1.01,0.03 -0.96,0 -1.91,0.06 -2.87,0.06 -0.77,0 -1.54,-0.04 -2.31,-0.04 -4.49,0.04 -8.97,0.09 -13.56,0.04 l 0.21,-0.32 c -80.92,-3.26 -159.96,-31.28 -230.82,-68.71 -25.46,-13.46 -49.73,-28.11 -72.68,-43.2 -105.28,-69.24 -182.13,-148.91 -201.87,-170.18 -3.45,-3.7 -58.77,-61.33 -144.55,-122.22 0,0 -137.94,-79.86 -255.06,-79.86 0,0 202.6,-100.34 440.41,22.77 29.74,14.76 59.08,29.9 84.1,48.62 90.44,67.69 203.3,178.77 203.3,178.77 0,0 34.38,34.19 93.15,76.52 36.19,26.08 81.72,55.22 134.11,81.29 141.28,62.7 291.67,-49.46 291.67,-49.46 l 5.49,7.53 c -30.19,24.05 -120.84,103.03 -290.08,116.51"
         style="fill:#f7c50d;fill-opacity:1;fill-rule:nonzero;stroke:none"
         id="path44" /><path
         d="m 2955.2497,2729.4391 c 11.68,0 21.37,3.87 29.09,11.58 7.72,7.73 11.58,16.87 11.58,27.42 0,10.91 -3.86,20.14 -11.58,27.69 -7.72,7.52 -17.41,11.29 -29.09,11.29 -12.06,0 -21.76,-3.77 -29.11,-11.29 -7.35,-7.55 -11.02,-16.78 -11.02,-27.69 0,-10.55 3.67,-19.69 11.02,-27.42 7.35,-7.71 17.05,-11.58 29.11,-11.58"
         style="fill:#404040;fill-opacity:1;fill-rule:nonzero;stroke:none"
         id="path46" /></g></g></svg>
