<?xml version="1.0" encoding="UTF-8" standalone="no"?>
<!-- Created with Inkscape (http://www.inkscape.org/) -->

<svg
   version="1.1"
   id="svg2"
   xml:space="preserve"
   width="200"
   height="200"
   viewBox="0 0 200 200"
   sodipodi:docname="itoyori-fish-white-noeye-sq.svg"
   inkscape:version="1.1.2 (0a00cf5339, 2022-02-04)"
   inkscape:export-filename="/home/shiina/Pictures/itoyori-logo/itoyori-fish-white-noeye-sq-32.png"
   inkscape:export-xdpi="14.883433"
   inkscape:export-ydpi="14.883433"
   xmlns:inkscape="http://www.inkscape.org/namespaces/inkscape"
   xmlns:sodipodi="http://sodipodi.sourceforge.net/DTD/sodipodi-0.dtd"
   xmlns="http://www.w3.org/2000/svg"
   xmlns:svg="http://www.w3.org/2000/svg"><defs
     id="defs6" /><sodipodi:namedview
     id="namedview4"
     pagecolor="#ffffff"
     bordercolor="#666666"
     borderopacity="1.0"
     inkscape:pageshadow="2"
     inkscape:pageopacity="0.0"
     inkscape:pagecheckerboard="0"
     showgrid="false"
     inkscape:zoom="0.57824473"
     inkscape:cx="-290.53443"
     inkscape:cy="27.669945"
     inkscape:window-width="1912"
     inkscape:window-height="1011"
     inkscape:window-x="4"
     inkscape:window-y="36"
     inkscape:window-maximized="0"
     inkscape:current-layer="g10"
     fit-margin-top="10"
     fit-margin-left="10"
     fit-margin-right="10"
     fit-margin-bottom="10"
     lock-margins="true" /><g
     id="g8"
     inkscape:groupmode="layer"
     inkscape:label="ink_ext_XXXXXX"
     transform="matrix(1.3333333,0,0,-1.3333333,-363.72868,313.77887)"><g
       id="g10"
       transform="scale(0.1)"><path
         d="m 3125.5345,1845.4582 c -7.5494,-2.6981 -14.9916,-5.6107 -22.3623,-8.6662 -0.9739,-0.3931 -1.9209,-0.7237 -2.8947,-1.1168 l 0.072,-0.062 c -175.8701,-73.9843 -301.2887,-241.9833 -301.2887,-241.9833 0,0 43.2148,-57.8938 114.5367,-120.6834 22.1747,27.2851 71.5363,84.6606 140.4638,145.9851 46.2613,41.1421 101.3319,83.9906 162.9869,120.7549 5.6196,3.3771 11.5252,6.7096 17.5826,10.0242 0.9112,0.5092 1.8136,1.0274 2.7249,1.5456 109.9266,59.216 286.8956,106.9158 404.05,110.4627 0,0 -178.3716,111.3382 -515.8707,-16.2603"
         style="fill:#f7c50d;fill-opacity:1;fill-rule:nonzero;stroke:none;stroke-width:0.893422"
         id="path32" /><path
         d="m 3629.1653,1465.9683 c 11.9362,-7.2724 23.8187,-14.6074 36.4874,-21.3081 67.3819,-35.5939 143.0368,-61.6729 220.2195,-61.6729 49.1025,0 96.4896,9.2112 141.0178,24.2475 -94.0506,28.3125 -174.4049,76.602 -230.083,116.7434 -24.4529,17.6094 -42.4107,32.4223 -56.4374,44.4746 -0.4378,-0.42 -1.8405,-1.7512 -1.8673,-1.778 -3.0019,-2.9393 -52.2294,-51.0948 -109.337,-100.7065"
         style="fill:#ff9c9c;fill-opacity:1;fill-rule:nonzero;stroke:none;stroke-width:0.893422"
         id="path34" /><path
         d="m 3610.0551,1298.7466 c -47.2621,3.6541 -94.1578,11.8735 -140.7051,24.6137 -14.393,3.7167 -28.6341,8.4786 -42.9021,13.0083 -57.3487,-23.2111 -117.1097,-35.7012 -178.2019,-37.1396 128.8493,-34.1734 252.7222,-36.4516 361.8091,-0.4824"
         style="fill:#ff9c9c;fill-opacity:1;fill-rule:nonzero;stroke:none;stroke-width:0.893422"
         id="path36" /><path
         d="m 3531.9342,1752.0599 c -18.2794,11.5698 -47.0833,28.5716 -77.54,43.4292 -57.5185,-15.215 -114.501,-34.897 -162.8172,-56.9467 55.7942,-32.8511 99.1966,-73.0462 127.6074,-104.2087 3.663,-3.9489 10.3816,-10.7658 18.3509,-18.6636 32.1632,30.3763 78.4335,70.1783 134.7548,108.2023 -12.9457,9.4971 -25.936,19.0478 -40.3559,28.1875"
         style="fill:#ff9c9c;fill-opacity:1;fill-rule:nonzero;stroke:none;stroke-width:0.893422"
         id="path38" /><path
         d="m 3111.4631,1407.2437 c 0.3931,0.08 0.7862,0.1787 1.1525,0.2591 15.3758,3.0912 30.3853,7.2903 45.1982,11.954 3.0019,0.956 6.0038,1.8315 9.0057,2.8321 15.0095,5.0121 29.8403,10.4799 44.5014,16.3854 -53.5785,35.3884 -108.1755,79.4073 -159.5205,129.7963 -55.3832,-52.2294 -95.2834,-98.6606 -110.8111,-117.7172 l -0.545,-0.679 c 13.5622,-11.0249 29.7599,-22.5053 45.8325,-33.4498 18.0918,-12.3113 39.4982,-19.4229 61.3692,-18.6457 21.5404,0.7594 44.3316,5.4142 63.8171,9.2648"
         style="fill:#ff9c9c;fill-opacity:1;fill-rule:nonzero;stroke:none;stroke-width:0.893422"
         id="path40" /><path
         d="m 3922.9403,1799.2236 c -0.3931,0.036 -0.7862,0.072 -1.1793,0.1072 -0.7147,0.054 -1.4563,0.089 -2.171,0.143 -10.0063,0.8487 -20.102,1.3133 -30.2691,1.4026 -0.3038,0.01 -0.5986,0.018 -0.9024,0.027 -0.8577,0 -1.7064,0.054 -2.5641,0.054 -0.688,0 -1.3759,-0.036 -2.0638,-0.036 -4.0115,0.036 -8.014,0.08 -12.1148,0.036 l 0.1876,-0.2859 c -72.2957,-2.9126 -142.9118,-27.9463 -206.2196,-61.3871 -22.7466,-12.0254 -44.4299,-25.114 -64.9339,-38.5958 -94.0595,-61.8605 -162.719,-133.0394 -180.3551,-152.0425 -3.0823,-3.3057 -52.5064,-54.7936 -129.1441,-109.194 0,0 -123.2386,-71.3487 -227.8762,-71.3487 0,0 181.0073,-89.6459 393.4719,20.3432 26.5704,13.1869 52.7834,26.7133 75.1368,43.4382 80.8011,60.4757 181.6326,159.717 181.6326,159.717 0,0 30.7159,30.5461 83.2223,68.3647 32.3329,23.3004 73.0104,49.3347 119.8168,72.6262 126.2226,56.0176 260.5843,-44.1886 260.5843,-44.1886 l 4.9049,6.7274 c -26.9724,21.4868 -107.9611,92.0493 -259.1638,104.0926"
         style="fill:#f7c50d;fill-opacity:1;fill-rule:nonzero;stroke:none;stroke-width:0.893422"
         id="path44" /></g></g></svg>
